<?xml version="1.0" encoding="utf-8"?>
<!-- Generator: Adobe Illustrator 25.4.1, SVG Export Plug-In . SVG Version: 6.00 Build 0)  -->
<svg version="1.1" id="Layer_2_00000080921158202372741590000014239311980587708091_"
	 xmlns="http://www.w3.org/2000/svg" xmlns:xlink="http://www.w3.org/1999/xlink" x="0px" y="0px" viewBox="0 0 300 300"
	 style="enable-background:new 0 0 300 300;" xml:space="preserve">
<style type="text/css">
	.st0{fill:#FFFFFF;}
	.st1{fill:#1FB05E;}
	.st2{fill:#AAE5C9;}
</style>
<g id="Layer_1_2_">
	<g>
		<path class="st0" d="M275,300H25c-13.8,0-25-11.2-25-25V25C0,11.2,11.2,0,25,0h250c13.8,0,25,11.2,25,25v250
			C300,288.8,288.8,300,275,300z"/>
	</g>
</g>
<g id="Layer_3">
	<g>
		<path class="st1" d="M194.3,119.9v75.2c0,6-4.9,10.9-10.9,10.9h-65.2c-6,0-10.9-4.9-10.9-10.9V101c0-6,4.9-10.9,10.9-10.9h46.2
			c2.9,0,5.6,1.2,7.7,3.2l19,19C193.1,114.3,194.3,117.1,194.3,119.9z M183.4,195.1v-65.2h-23.5c-3,0-5.4-2.4-5.4-5.4V101h-36.2
			v94.1H183.4z M168.1,148h3.6c1.8,0,3.1,1.7,2.6,3.4c-1,3.8-3.1,12.2-7.8,30.8c-0.3,1.2-1.4,2.1-2.6,2.1h-5.6
			c-1.2,0-2.3-0.9-2.6-2.1c-1.2-4.7-4-16.1-4.1-16.2l-0.7-3.9c-0.1,1.2-0.3,2.5-0.7,3.9l-4.1,16.2c-0.3,1.2-1.4,2.1-2.6,2.1h-5.7
			c-1.3,0-2.4-0.8-2.6-2.1c-1.5-6-5.7-23.4-7.5-30.8c-0.4-1.7,0.9-3.3,2.6-3.3h3.8c1.3,0,2.4,0.9,2.7,2.2c1.1,5.8,4.2,21.2,4.3,22.4
			c0.1,0.4,0.1,0.7,0.1,1c0.2-1.7,0.1-1.1,5.6-23.5c0.3-1.2,1.4-2.1,2.6-2.1h3c1.3,0,2.4,0.9,2.6,2.1c5.4,22.6,5.2,21.4,5.3,22.5
			c0.1,0.4,0.1,0.7,0.2,1c0.1-1.8,0.1-1.3,4.8-23.4C165.7,148.9,166.8,148,168.1,148L168.1,148z M165.3,101.8v17.2h17.2L165.3,101.8
			z"/>
	</g>
	<g id="Arrows_2">
		<g>
			<path class="st2" d="M73.6,197.6C65,183.8,60,167.5,60,150c0-48.1,37.9-87.6,85.4-90.1v-5.7C94.7,56.7,54.3,98.7,54.3,150
				c0,18.4,5.2,35.7,14.3,50.3L73.6,197.6z"/>
			<path class="st2" d="M153.7,59.8c48.2,1.8,86.9,41.6,86.9,90.2c0,17.7-5.1,34.2-14,48.2l5,2.8c9.3-14.8,14.7-32.2,14.7-50.9
				c0-51.8-41.2-94.1-92.6-95.9V59.8z"/>
			<path class="st2" d="M221.8,205c-16.5,21.4-42.4,35.3-71.5,35.3c-29.4,0-55.5-14.1-72-35.9l-5.1,2.8c17.5,23.5,45.5,38.8,77,38.8
				c31.3,0,59.1-15,76.6-38.2L221.8,205z"/>
		</g>
		<polyline class="st2" points="138.5,47.3 148.7,57.4 138.5,67.5 		"/>
		<polyline class="st2" points="241.1,199.4 227.1,202.1 224.3,188.1 		"/>
		<polyline class="st2" points="71.5,216.5 74.3,202.5 88.4,205.4 		"/>
	</g>
</g>
</svg>
